<svg width="764" height="44" viewBox="0 0 764 44" fill="none" xmlns="http://www.w3.org/2000/svg">
<path d="M11.58 26.98V43H0.42V0.999997H31.8V10.18H11.58V18.52H28.02V26.98H11.58ZM47.7497 0.999997H60.6497L74.9297 43H62.6297L60.1697 34.96H46.5497L44.0297 43H33.7697L47.7497 0.999997ZM48.8897 27.4H57.8297L53.3897 13.12L48.8897 27.4ZM82.2098 43V0.999997H92.7098L106.87 23.56V0.999997H116.59V43H106.33L91.9298 19.84V43H82.2098ZM144.16 27.88H154.66V32.38L156.64 34.3H164.08L166 32.38V0.999997H176.8V38.08L167.26 43.36H153.76L144.16 38.08V27.88ZM221.671 5.92V38.08L212.071 43.36H196.471L186.871 38.08V5.92L196.471 0.639998H212.071L221.671 5.92ZM210.511 11.62L208.531 9.7H200.011L198.031 11.62V32.38L200.011 34.3H208.531L210.511 32.38V11.62ZM242.884 0.999997V32.38L244.804 34.3H252.964L254.824 32.38V0.999997H265.804V38.08L256.264 43.36H241.264L231.724 38.08V0.999997H242.884ZM276.108 43V0.999997H301.488L310.368 6.1V21.94L304.008 25.54L310.968 43H299.208L293.148 26.98H287.268V43H276.108ZM297.768 9.82H287.268V19.18H297.768L299.388 17.56V11.44L297.768 9.82ZM319.728 43V0.999997H330.228L344.388 23.56V0.999997H354.108V43H343.848L329.448 19.84V43H319.728ZM396.016 34.36V43H364.636V0.999997H396.016V10.18H375.796V17.92H392.116V26.02H375.796V34.36H396.016ZM417.085 43V26.8L401.605 0.999997H414.505L423.685 17.08L432.985 0.999997H443.845L428.245 26.8V43H417.085ZM469.011 43V0.999997H494.511L503.451 6.1V23.32L494.511 28.42H480.171V43H469.011ZM490.791 9.82H480.171V19.96H490.791L492.471 18.4V11.44L490.791 9.82ZM544.362 34.36V43H512.982V0.999997H524.142V34.36H544.362ZM563.944 0.999997H576.844L591.124 43H578.824L576.364 34.96H562.744L560.224 43H549.964L563.944 0.999997ZM565.084 27.4H574.024L569.584 13.12L565.084 27.4ZM598.404 43V0.999997H608.904L623.064 23.56V0.999997H632.784V43H622.524L608.124 19.84V43H598.404ZM643.313 43V0.999997H653.813L667.973 23.56V0.999997H677.693V43H667.433L653.033 19.84V43H643.313ZM719.602 34.36V43H688.222V0.999997H719.602V10.18H699.382V17.92H715.702V26.02H699.382V34.36H719.602ZM728.97 43V0.999997H754.35L763.23 6.1V21.94L756.87 25.54L763.83 43H752.07L746.01 26.98H740.13V43H728.97ZM750.63 9.82H740.13V19.18H750.63L752.25 17.56V11.44L750.63 9.82Z" fill="white"/>
</svg>
