<svg width="634" height="44" viewBox="0 0 634 44" fill="none" xmlns="http://www.w3.org/2000/svg">
<path d="M31.8 34.36V43H0.42V0.999997H11.58V34.36H31.8ZM51.3825 0.999997H64.2825L78.5625 43H66.2625L63.8025 34.96H50.1825L47.6625 43H37.4025L51.3825 0.999997ZM52.5225 27.4H61.4625L57.0225 13.12L52.5225 27.4ZM118.483 5.92V20.56L100.423 34.12H118.663V43H85.3627V32.92L107.443 16.42V11.32L105.703 9.64H96.8827L95.0827 11.32V15.64H84.8827V5.92L94.4227 0.639998H108.943L118.483 5.92ZM137.706 0.639998H152.286L161.886 5.92V19.3L157.326 22.06L162.006 24.94V38.02L152.466 43.36H137.526L128.046 38.02V24.94L132.726 22.06L128.226 19.3V5.92L137.706 0.639998ZM140.886 18.16H149.166L150.906 16.48V11.32L149.166 9.64H140.886L139.146 11.32V16.48L140.886 18.16ZM149.226 34.72L150.966 33.04V27.82L149.226 26.08H140.826L139.086 27.82V33.04L140.826 34.72H149.226ZM201.728 26.98V43H190.568V0.999997H221.948V10.18H201.728V18.52H218.168V26.98H201.728ZM237.898 0.999997H250.798L265.078 43H252.778L250.318 34.96H236.698L234.178 43H223.918L237.898 0.999997ZM239.038 27.4H247.978L243.538 13.12L239.038 27.4ZM272.358 43V0.999997H282.858L297.018 23.56V0.999997H306.738V43H296.478L282.078 19.84V43H272.358ZM334.308 27.88H344.808V32.38L346.788 34.3H354.228L356.148 32.38V0.999997H366.948V38.08L357.408 43.36H343.908L334.308 38.08V27.88ZM411.82 5.92V38.08L402.22 43.36H386.62L377.02 38.08V5.92L386.62 0.639998H402.22L411.82 5.92ZM400.66 11.62L398.68 9.7H390.16L388.18 11.62V32.38L390.16 34.3H398.68L400.66 32.38V11.62ZM433.033 0.999997V32.38L434.953 34.3H443.113L444.973 32.38V0.999997H455.953V38.08L446.413 43.36H431.413L421.873 38.08V0.999997H433.033ZM466.257 43V0.999997H491.637L500.517 6.1V21.94L494.157 25.54L501.117 43H489.357L483.297 26.98H477.417V43H466.257ZM487.917 9.82H477.417V19.18H487.917L489.537 17.56V11.44L487.917 9.82ZM509.876 43V0.999997H520.376L534.536 23.56V0.999997H544.256V43H533.996L519.596 19.84V43H509.876ZM586.165 34.36V43H554.785V0.999997H586.165V10.18H565.945V17.92H582.265V26.02H565.945V34.36H586.165ZM607.233 43V26.8L591.753 0.999997H604.653L613.833 17.08L623.133 0.999997H633.993L618.393 26.8V43H607.233Z" fill="white"/>
</svg>
