<svg width="241" height="76" viewBox="0 0 241 76" fill="none" xmlns="http://www.w3.org/2000/svg">
<path d="M0.28 29V0.999998H17.28L23.24 4.4V15.88L17.28 19.28H7.72V29H0.28ZM14.8 6.88H7.72V13.64H14.8L15.92 12.6V7.96L14.8 6.88ZM50.5141 23.24V29H29.5941V0.999998H37.0341V23.24H50.5141ZM63.5691 0.999998H72.1691L81.6891 29H73.4891L71.8491 23.64H62.7691L61.0891 29H54.2491L63.5691 0.999998ZM64.3291 18.6H70.2891L67.3291 9.08L64.3291 18.6ZM86.5425 29V0.999998H93.5425L102.982 16.04V0.999998H109.462V29H102.622L93.0225 13.56V29H86.5425ZM136.643 29V18.2L126.322 0.999998H134.923L141.043 11.72L147.243 0.999998H154.483L144.083 18.2V29H136.643ZM181.275 4.28V25.72L174.875 29.24H164.475L158.075 25.72V4.28L164.475 0.759999H174.875L181.275 4.28ZM173.835 8.08L172.515 6.8H166.835L165.515 8.08V21.92L166.835 23.2H172.515L173.835 21.92V8.08ZM195.417 0.999998V21.92L196.697 23.2H202.137L203.377 21.92V0.999998H210.697V25.72L204.337 29.24H194.337L187.977 25.72V0.999998H195.417ZM217.566 29V0.999998H234.486L240.406 4.4V14.96L236.166 17.36L240.806 29H232.966L228.926 18.32H225.006V29H217.566ZM232.006 6.88H225.006V13.12H232.006L233.086 12.04V7.96L232.006 6.88ZM11.6409 64.92H18.6409V67.92L19.9609 69.2H24.9209L26.2009 67.92V47H33.4009V71.72L27.0409 75.24H18.0409L11.6409 71.72V64.92ZM63.3153 50.28V71.72L56.9153 75.24H46.5153L40.1153 71.72V50.28L46.5153 46.76H56.9153L63.3153 50.28ZM55.8753 54.08L54.5553 52.8H48.8753L47.5553 54.08V67.92L48.8753 69.2H54.5553L55.8753 67.92V54.08ZM77.4572 47V67.92L78.7372 69.2H84.1772L85.4172 67.92V47H92.7372V71.72L86.3772 75.24H76.3772L70.0172 71.72V47H77.4572ZM99.6066 75V47H116.527L122.447 50.4V60.96L118.207 63.36L122.847 75H115.007L110.967 64.32H107.047V75H99.6066ZM114.047 52.88H107.047V59.12H114.047L115.127 58.04V53.96L114.047 52.88ZM128.686 75V47H135.686L145.126 62.04V47H151.606V75H144.766L135.166 59.56V75H128.686ZM179.545 69.24V75H158.625V47H179.545V53.12H166.065V58.28H176.945V63.68H166.065V69.24H179.545ZM193.591 75V64.2L183.271 47H191.871L197.991 57.72L204.191 47H211.431L201.031 64.2V75H193.591ZM218.232 68.2V75H210.952V68.2H218.232Z" fill="white"/>
</svg>
