<svg width="241" height="76" viewBox="0 0 241 76" fill="none" xmlns="http://www.w3.org/2000/svg">
<path d="M0.297189 29V0.999998H17.2972L23.2572 4.4V15.88L17.2972 19.28H7.73719V29H0.297189ZM14.8172 6.88H7.73719V13.64H14.8172L15.9372 12.6V7.96L14.8172 6.88ZM50.5313 23.24V29H29.6113V0.999998H37.0513V23.24H50.5313ZM63.5862 0.999998H72.1862L81.7062 29H73.5062L71.8662 23.64H62.7862L61.1062 29H54.2662L63.5862 0.999998ZM64.3462 18.6H70.3062L67.3462 9.08L64.3462 18.6ZM86.5597 29V0.999998H93.5597L103 16.04V0.999998H109.48V29H102.64L93.0397 13.56V29H86.5597ZM136.66 29V18.2L126.34 0.999998H134.94L141.06 11.72L147.26 0.999998H154.5L144.1 18.2V29H136.66ZM181.292 4.28V25.72L174.892 29.24H164.492L158.092 25.72V4.28L164.492 0.759999H174.892L181.292 4.28ZM173.852 8.08L172.532 6.8H166.852L165.532 8.08V21.92L166.852 23.2H172.532L173.852 21.92V8.08ZM195.434 0.999998V21.92L196.714 23.2H202.154L203.394 21.92V0.999998H210.714V25.72L204.354 29.24H194.354L187.994 25.72V0.999998H195.434ZM217.583 29V0.999998H234.503L240.423 4.4V14.96L236.183 17.36L240.823 29H232.983L228.943 18.32H225.023V29H217.583ZM232.023 6.88H225.023V13.12H232.023L233.103 12.04V7.96L232.023 6.88ZM27.0573 64.92H34.0573V67.92L35.3773 69.2H40.3373L41.6173 67.92V47H48.8173V71.72L42.4573 75.24H33.4573L27.0573 71.72V64.92ZM78.7317 50.28V71.72L72.3317 75.24H61.9317L55.5317 71.72V50.28L61.9317 46.76H72.3317L78.7317 50.28ZM71.2917 54.08L69.9717 52.8H64.2917L62.9717 54.08V67.92L64.2917 69.2H69.9717L71.2917 67.92V54.08ZM92.8736 47V67.92L94.1536 69.2H99.5936L100.834 67.92V47H108.154V71.72L101.794 75.24H91.7936L85.4336 71.72V47H92.8736ZM115.023 75V47H131.943L137.863 50.4V60.96L133.623 63.36L138.263 75H130.423L126.383 64.32H122.463V75H115.023ZM129.463 52.88H122.463V59.12H129.463L130.543 58.04V53.96L129.463 52.88ZM144.103 75V47H151.103L160.543 62.04V47H167.023V75H160.183L150.583 59.56V75H144.103ZM194.962 69.24V75H174.042V47H194.962V53.12H181.482V58.28H192.362V63.68H181.482V69.24H194.962ZM209.007 75V64.2L198.687 47H207.287L213.407 57.72L219.607 47H226.847L216.447 64.2V75H209.007Z" fill="white"/>
</svg>
