<svg width="242" height="76" viewBox="0 0 242 76" fill="none" xmlns="http://www.w3.org/2000/svg">
<path d="M1.28 29V0.999998H18.28L24.24 4.4V15.88L18.28 19.28H8.72V29H1.28ZM15.8 6.88H8.72V13.64H15.8L16.92 12.6V7.96L15.8 6.88ZM51.5141 23.24V29H30.5941V0.999998H38.0341V23.24H51.5141ZM64.5691 0.999998H73.1691L82.6891 29H74.4891L72.8491 23.64H63.7691L62.0891 29H55.2491L64.5691 0.999998ZM65.3291 18.6H71.2891L68.3291 9.08L65.3291 18.6ZM87.5425 29V0.999998H94.5425L103.982 16.04V0.999998H110.462V29H103.622L94.0225 13.56V29H87.5425ZM137.643 29V18.2L127.322 0.999998H135.923L142.043 11.72L148.243 0.999998H155.483L145.083 18.2V29H137.643ZM182.275 4.28V25.72L175.875 29.24H165.475L159.075 25.72V4.28L165.475 0.759999H175.875L182.275 4.28ZM174.835 8.08L173.515 6.8H167.835L166.515 8.08V21.92L167.835 23.2H173.515L174.835 21.92V8.08ZM196.417 0.999998V21.92L197.697 23.2H203.137L204.377 21.92V0.999998H211.697V25.72L205.337 29.24H195.337L188.977 25.72V0.999998H196.417ZM218.566 29V0.999998H235.486L241.406 4.4V14.96L237.166 17.36L241.806 29H233.966L229.926 18.32H226.006V29H218.566ZM233.006 6.88H226.006V13.12H233.006L234.086 12.04V7.96L233.006 6.88ZM0.28 64.92H7.28V67.92L8.6 69.2H13.56L14.84 67.92V47H22.04V71.72L15.68 75.24H6.68L0.28 71.72V64.92ZM51.9544 50.28V71.72L45.5544 75.24H35.1544L28.7544 71.72V50.28L35.1544 46.76H45.5544L51.9544 50.28ZM44.5144 54.08L43.1944 52.8H37.5144L36.1944 54.08V67.92L37.5144 69.2H43.1944L44.5144 67.92V54.08ZM66.0962 47V67.92L67.3762 69.2H72.8162L74.0563 67.92V47H81.3763V71.72L75.0162 75.24H65.0162L58.6562 71.72V47H66.0962ZM88.2456 75V47H105.166L111.086 50.4V60.96L106.846 63.36L111.486 75H103.646L99.6056 64.32H95.6856V75H88.2456ZM102.686 52.88H95.6856V59.12H102.686L103.766 58.04V53.96L102.686 52.88ZM117.325 75V47H124.325L133.765 62.04V47H140.245V75H133.405L123.805 59.56V75H117.325ZM168.184 69.24V75H147.264V47H168.184V53.12H154.704V58.28H165.584V63.68H154.704V69.24H168.184ZM182.23 75V64.2L171.91 47H180.51L186.63 57.72L192.83 47H200.07L189.67 64.2V75H182.23ZM206.871 68.2V75H199.591V68.2H206.871Z" fill="white"/>
</svg>
