<svg width="168" height="30" viewBox="0 0 168 30" fill="none" xmlns="http://www.w3.org/2000/svg">
<path d="M18.3895 29H9.90953L0.429531 0.999998H8.58953L14.7895 20.72L21.0295 0.999998H27.7095L18.3895 29ZM53.4867 23.24V29H32.5667V0.999998H53.4867V7.12H40.0067V12.28H50.8867V17.68H40.0067V23.24H53.4867ZM59.7323 29V0.999998H66.7323L76.1723 16.04V0.999998H82.6523V29H75.8123L66.2123 13.56V29H59.7323ZM97.0314 0.999998V21.92L98.3114 23.2H103.751L104.991 21.92V0.999998H112.311V25.72L105.951 29.24H95.9514L89.5914 25.72V0.999998H97.0314ZM140.101 23.24V29H119.181V0.999998H140.101V7.12H126.621V12.28H137.501V17.68H126.621V23.24H140.101ZM152.872 7.56V11.24L153.752 12.16H162.352L167.832 15.16V25.72L161.432 29.24H152.112L145.712 25.72V20.6H152.792V22.44L153.992 23.56H159.472L160.672 22.44V18.68L159.752 17.8H151.152L145.712 14.8V4.28L152.112 0.759999H161.432L167.792 4.28V9.52H160.712V7.56L159.552 6.44H154.032L152.872 7.56Z" fill="white"/>
</svg>
